<svg width="51" height="51" viewBox="0 0 51 51" fill="none" xmlns="http://www.w3.org/2000/svg">
<g clip-path="url(#clip0_32_2778)">
<path d="M25.5506 50.1038C12.0348 50.1038 1.03886 39.1079 1.03886 25.592C1.03886 12.0762 12.0348 1.08032 25.5506 1.08032C39.0664 1.08032 50.0623 12.0762 50.0623 25.592C50.0623 39.1079 39.0664 50.1038 25.5506 50.1038Z" fill="white"/>
<path d="M25.548 47.5737C37.688 47.5737 47.5294 37.7323 47.5294 25.5923C47.5294 13.4523 37.688 3.61084 25.548 3.61084C13.408 3.61084 3.56656 13.4523 3.56656 25.5923C3.56656 37.7323 13.408 47.5737 25.548 47.5737Z" fill="white"/>
<path d="M3.56656 25.592C3.56656 29.5979 4.64429 33.3563 6.52418 36.5942H44.572C46.4517 33.3565 47.5296 29.5979 47.5296 25.592C47.5296 21.5861 46.4519 17.8277 44.572 14.5898C34.7533 14.5898 16.3457 14.5898 6.52418 14.5898C4.64429 17.8277 3.56656 21.5861 3.56656 25.592Z" fill="#117BD4"/>
<path d="M25.5506 50.5923C11.7654 50.5923 0.550598 39.3774 0.550598 25.5923C0.550598 11.8071 11.7654 0.592285 25.5506 0.592285C39.3358 0.592285 50.5506 11.8071 50.5506 25.5923C50.5506 39.3774 39.3358 50.5923 25.5506 50.5923ZM25.5506 1.56885C12.3041 1.56885 1.52716 12.3458 1.52716 25.5923C1.52716 38.8388 12.3041 49.6157 25.5506 49.6157C38.7971 49.6157 49.574 38.8388 49.574 25.5923C49.574 12.3458 38.7971 1.56885 25.5506 1.56885Z" fill="#117BD4"/>
<path d="M25.5538 48.0608C13.1639 48.0608 3.08405 37.9809 3.08405 25.5911C3.08405 13.2012 13.1639 3.12134 25.5538 3.12134C37.9436 3.12134 48.0235 13.2012 48.0235 25.5911C48.0235 37.9809 37.9436 48.0608 25.5538 48.0608ZM25.5538 4.0979C13.7024 4.0979 4.06061 13.7397 4.06061 25.5911C4.06061 37.4424 13.7024 47.0842 25.5538 47.0842C37.4051 47.0842 47.0469 37.4424 47.0469 25.5911C47.0469 13.7397 37.4051 4.0979 25.5538 4.0979Z" fill="#117BD4"/>
<path d="M44.5778 37.0829H6.52975C6.35572 37.0829 6.19479 36.9903 6.10748 36.8398C4.12955 33.4327 3.08405 29.5435 3.08405 25.5925C3.08405 21.6415 4.12955 17.7522 6.10748 14.3452C6.19479 14.1946 6.35572 14.1021 6.52975 14.1021H44.5778C44.7518 14.1021 44.9127 14.1946 45.0001 14.3452C46.978 17.7522 48.0235 21.6415 48.0235 25.5925C48.0235 29.5435 46.978 33.4327 45.0001 36.8398C44.9127 36.9902 44.7518 37.0829 44.5778 37.0829ZM6.81295 36.1064H44.2944C46.0959 32.9067 47.0467 29.278 47.0467 25.5925C47.0467 21.9069 46.0958 18.2782 44.2944 15.0786H6.81295C5.01158 18.2782 4.06061 21.9071 4.06061 25.5925C4.06061 29.2778 5.01158 32.9067 6.81295 36.1064Z" fill="#117BD4"/>
<path d="M36.4876 15.0786H14.6157C14.4179 15.0786 14.2398 14.9592 14.1644 14.7764C14.089 14.5936 14.1314 14.3834 14.2714 14.244C17.295 11.2385 21.3011 9.58325 25.5517 9.58325C29.8023 9.58325 33.8083 11.2385 36.8318 14.244C36.972 14.3834 37.0144 14.5936 36.9388 14.7764C36.8632 14.9592 36.6853 15.0786 36.4876 15.0786ZM15.8696 14.102H35.2337C32.5236 11.8094 29.1298 10.5598 25.5517 10.5598C21.9736 10.5598 18.5798 11.8094 15.8696 14.102Z" fill="#117BD4"/>
<path d="M25.5516 41.6025C21.3012 41.6025 17.2952 39.9472 14.2715 36.9418C14.1313 36.8023 14.0889 36.5921 14.1645 36.4093C14.2399 36.2265 14.418 36.1072 14.6159 36.1072H36.4876C36.6854 36.1072 36.8635 36.2265 36.9389 36.4093C37.0143 36.5921 36.9719 36.8023 36.8319 36.9418C33.8083 39.9472 29.8022 41.6025 25.5516 41.6025ZM15.8696 37.0837C18.5797 39.3765 21.9735 40.6259 25.5516 40.6259C29.1297 40.6259 32.5235 39.3765 35.2337 37.0837H15.8696Z" fill="#117BD4"/>
<path d="M18.2806 17.9583C18.3029 17.9137 18.3419 17.8915 18.3975 17.8915H19.1741C19.202 17.8915 19.2242 17.9026 19.2409 17.9249C19.2632 17.9416 19.2743 17.9638 19.2743 17.9917V23.6366C19.2743 23.6644 19.2632 23.6895 19.2409 23.7118C19.2242 23.7285 19.202 23.7368 19.1741 23.7368H18.4059C18.3781 23.7368 18.353 23.7285 18.3307 23.7118C18.314 23.6895 18.3057 23.6644 18.3057 23.6366V19.6785C18.3057 19.6562 18.3001 19.6451 18.289 19.6451C18.2778 19.6395 18.2667 19.6451 18.2556 19.6618L17.3704 21.1231C17.3482 21.1676 17.3092 21.1899 17.2535 21.1899H17.0949C17.0392 21.1899 17.0002 21.1676 16.978 21.1231L16.0928 19.6701C16.0817 19.6534 16.0705 19.6478 16.0594 19.6534C16.0483 19.6534 16.0427 19.6645 16.0427 19.6868V23.6366C16.0427 23.6644 16.0316 23.6895 16.0093 23.7118C15.9926 23.7285 15.9703 23.7368 15.9425 23.7368H15.1742C15.1464 23.7368 15.1214 23.7285 15.0991 23.7118C15.0824 23.6895 15.074 23.6644 15.074 23.6366V17.9917C15.074 17.9638 15.0824 17.9416 15.0991 17.9249C15.1214 17.9026 15.1464 17.8915 15.1742 17.8915H15.9425C15.9982 17.8915 16.0371 17.9137 16.0594 17.9583L17.1533 19.7035C17.17 19.7369 17.1867 19.7369 17.2034 19.7035L18.2806 17.9583ZM21.8376 23.8036C21.3866 23.8036 21.0164 23.6839 20.7269 23.4445C20.4375 23.1996 20.2621 22.8711 20.2009 22.4592C20.1563 22.192 20.1341 21.9053 20.1341 21.5991C20.1341 21.2818 20.1563 20.9895 20.2009 20.7223C20.2621 20.3159 20.4402 19.9958 20.7353 19.762C21.0303 19.5226 21.4005 19.4029 21.8459 19.4029C22.2857 19.4029 22.6503 19.5226 22.9398 19.762C23.2293 19.9958 23.4047 20.3131 23.4659 20.7139C23.5104 20.9923 23.5327 21.2845 23.5327 21.5907C23.5327 21.9248 23.5132 22.2115 23.4743 22.4508C23.413 22.8684 23.2377 23.1996 22.9482 23.4445C22.6587 23.6839 22.2885 23.8036 21.8376 23.8036ZM21.8376 22.9686C22.0213 22.9686 22.1744 22.9073 22.2968 22.7849C22.4249 22.6624 22.5028 22.5009 22.5307 22.3005C22.5529 22.011 22.5641 21.7772 22.5641 21.5991C22.5641 21.4154 22.5529 21.1788 22.5307 20.8893C22.5028 20.6889 22.4249 20.5302 22.2968 20.4133C22.1744 20.2964 22.0213 20.238 21.8376 20.238C21.6483 20.238 21.4924 20.2964 21.3699 20.4133C21.2475 20.5302 21.1723 20.6889 21.1445 20.8893C21.1222 21.0841 21.1111 21.3207 21.1111 21.5991C21.1111 21.883 21.1222 22.1168 21.1445 22.3005C21.1723 22.5009 21.2475 22.6624 21.3699 22.7849C21.4924 22.9073 21.6483 22.9686 21.8376 22.9686ZM26.2736 19.4029C26.68 19.4029 26.9974 19.5309 27.2256 19.787C27.4538 20.0431 27.568 20.3966 27.568 20.8475V23.6366C27.568 23.6644 27.5568 23.6895 27.5346 23.7118C27.5179 23.7285 27.4956 23.7368 27.4678 23.7368H26.6995C26.6717 23.7368 26.6466 23.7285 26.6244 23.7118C26.6077 23.6895 26.5993 23.6644 26.5993 23.6366V20.9811C26.5993 20.7529 26.5409 20.572 26.4239 20.4384C26.3126 20.3048 26.1595 20.238 25.9647 20.238C25.7643 20.238 25.6028 20.3075 25.4803 20.4467C25.3634 20.5803 25.305 20.7612 25.305 20.9895V23.6366C25.305 23.6644 25.2938 23.6895 25.2716 23.7118C25.2549 23.7285 25.2326 23.7368 25.2048 23.7368H24.4365C24.4087 23.7368 24.3836 23.7285 24.3614 23.7118C24.3447 23.6895 24.3363 23.6644 24.3363 23.6366V19.5699C24.3363 19.5421 24.3447 19.5198 24.3614 19.5031C24.3836 19.4808 24.4087 19.4697 24.4365 19.4697H25.2048C25.2326 19.4697 25.2549 19.4808 25.2716 19.5031C25.2938 19.5198 25.305 19.5421 25.305 19.5699V19.787C25.305 19.8037 25.3105 19.8149 25.3217 19.8204C25.3328 19.826 25.3439 19.8204 25.3551 19.8037C25.5778 19.5365 25.8839 19.4029 26.2736 19.4029ZM31.6702 20.8893C31.6869 21.073 31.6953 21.2845 31.6953 21.5239L31.6869 21.883C31.6869 21.9498 31.6535 21.9832 31.5867 21.9832H29.3488C29.3209 21.9832 29.307 21.9971 29.307 22.025C29.3182 22.1808 29.3293 22.295 29.3404 22.3673C29.3683 22.551 29.4462 22.6986 29.5742 22.8099C29.7023 22.9212 29.8637 22.9769 30.0586 22.9769C30.2256 22.9714 30.3648 22.9296 30.4761 22.8517C30.593 22.7737 30.6821 22.6652 30.7433 22.526C30.7712 22.4648 30.8129 22.4425 30.8686 22.4592L31.5533 22.6011C31.6201 22.6234 31.6424 22.6652 31.6201 22.7264C31.5088 23.0716 31.3167 23.3388 31.0439 23.5281C30.7767 23.7118 30.4483 23.8036 30.0586 23.8036C29.5965 23.8036 29.2263 23.6923 28.948 23.4696C28.6696 23.2469 28.4887 22.938 28.4052 22.5427C28.3773 22.3924 28.3579 22.2337 28.3467 22.0667C28.3412 21.8997 28.3384 21.677 28.3384 21.3987C28.3384 21.1092 28.3523 20.8893 28.3801 20.739C28.4358 20.3326 28.6084 20.0097 28.8979 19.7703C29.1873 19.5254 29.5548 19.4029 30.0001 19.4029C30.4845 19.4029 30.8741 19.5393 31.1692 19.8121C31.4698 20.0849 31.6368 20.4439 31.6702 20.8893ZM30.0085 20.238C29.8248 20.238 29.6717 20.2936 29.5492 20.405C29.4323 20.5107 29.3599 20.6555 29.3321 20.8392C29.3154 20.9617 29.307 21.1008 29.307 21.2567C29.307 21.2845 29.3209 21.2985 29.3488 21.2985H30.6765C30.7043 21.2985 30.7183 21.2845 30.7183 21.2567C30.7071 21.0674 30.696 20.931 30.6849 20.8475C30.6626 20.6638 30.5902 20.5163 30.4678 20.405C30.3453 20.2936 30.1922 20.238 30.0085 20.238ZM32.2696 25.3986C32.2529 25.3986 32.239 25.3874 32.2278 25.3652C32.2167 25.3485 32.2111 25.3262 32.2111 25.2984V24.6971C32.2111 24.6303 32.2417 24.5969 32.303 24.5969C32.509 24.5914 32.6704 24.5663 32.7873 24.5218C32.9042 24.4828 32.9988 24.4021 33.0712 24.2796C33.1436 24.1627 33.202 23.9901 33.2466 23.7619C33.2521 23.7507 33.2521 23.734 33.2466 23.7118L32.0358 19.5783L32.0274 19.5449C32.0274 19.4892 32.058 19.4614 32.1193 19.4614H32.946C33.0016 19.4614 33.0378 19.4892 33.0545 19.5449L33.7226 22.4007C33.7281 22.423 33.7365 22.4341 33.7476 22.4341C33.7587 22.4341 33.7671 22.423 33.7727 22.4007L34.4407 19.5532C34.4574 19.492 34.4936 19.4614 34.5493 19.4614L35.3593 19.4697C35.3927 19.4697 35.4149 19.4808 35.4261 19.5031C35.4428 19.5198 35.4483 19.5449 35.4428 19.5783L34.1484 23.9706C34.026 24.3659 33.9007 24.6609 33.7727 24.8558C33.6502 25.0506 33.4776 25.1898 33.2549 25.2733C33.0378 25.3568 32.7261 25.3986 32.3197 25.3986H32.2696ZM21.0231 31.1335C21.0231 31.6512 20.8588 32.0493 20.5304 32.3276C20.2075 32.6004 19.7844 32.7368 19.2611 32.7368H17.4824C17.4546 32.7368 17.4296 32.7285 17.4073 32.7118C17.3906 32.6895 17.3822 32.6644 17.3822 32.6366V26.9917C17.3822 26.9638 17.3906 26.9416 17.4073 26.9249C17.4296 26.9026 17.4546 26.8915 17.4824 26.8915H19.1609C19.7232 26.8915 20.1602 27.0251 20.4719 27.2923C20.7892 27.5539 20.9479 27.9464 20.9479 28.4697C20.9479 29.0431 20.7224 29.4495 20.2715 29.6889C20.2437 29.7056 20.2409 29.7223 20.2632 29.739C20.7698 30.0118 21.0231 30.4766 21.0231 31.1335ZM18.3926 27.7265C18.3648 27.7265 18.3509 27.7404 18.3509 27.7683V29.3215C18.3509 29.3493 18.3648 29.3632 18.3926 29.3632H19.1692C19.4309 29.3632 19.6341 29.2936 19.7788 29.1544C19.9291 29.0097 20.0043 28.8093 20.0043 28.5532C20.0043 28.2916 19.9291 28.0884 19.7788 27.9436C19.6341 27.7989 19.4309 27.7265 19.1692 27.7265H18.3926ZM19.2277 31.8934C19.4838 31.8934 19.6842 31.8155 19.8289 31.6596C19.9792 31.5037 20.0544 31.2866 20.0544 31.0083C20.0544 30.7299 19.9792 30.5128 19.8289 30.3569C19.6786 30.1955 19.4754 30.1148 19.2193 30.1148H18.3926C18.3648 30.1148 18.3509 30.1287 18.3509 30.1565V31.8517C18.3509 31.8795 18.3648 31.8934 18.3926 31.8934H19.2277ZM23.3448 28.4029C23.6621 28.4029 23.9433 28.4641 24.1882 28.5866C24.4332 28.7035 24.6225 28.8677 24.7561 29.0793C24.8952 29.2908 24.9648 29.533 24.9648 29.8058V32.6366C24.9648 32.6644 24.9537 32.6895 24.9314 32.7118C24.9147 32.7285 24.8925 32.7368 24.8646 32.7368H24.0964C24.0685 32.7368 24.0435 32.7285 24.0212 32.7118C24.0045 32.6895 23.9962 32.6644 23.9962 32.6366V32.4278C23.9962 32.4111 23.9906 32.4 23.9795 32.3944C23.9683 32.3889 23.9572 32.3917 23.9461 32.4028C23.7122 32.67 23.3754 32.8036 22.9357 32.8036C22.5682 32.8036 22.2565 32.7062 22.0004 32.5114C21.7443 32.3109 21.6163 31.9881 21.6163 31.5427C21.6163 31.0751 21.7638 30.7271 22.0588 30.4989C22.3595 30.2706 22.7714 30.1565 23.2947 30.1565H23.9544C23.9822 30.1565 23.9962 30.1426 23.9962 30.1148V29.906C23.9962 29.7 23.9377 29.5386 23.8208 29.4217C23.7095 29.2992 23.5536 29.238 23.3532 29.238C23.1917 29.238 23.0581 29.2769 22.9524 29.3549C22.8521 29.4272 22.7881 29.5274 22.7603 29.6555C22.7436 29.7167 22.7046 29.7473 22.6434 29.7473L21.8334 29.6972C21.8055 29.6972 21.7805 29.6889 21.7582 29.6722C21.7415 29.6499 21.736 29.6276 21.7415 29.6054C21.7749 29.2491 21.9392 28.9596 22.2342 28.7369C22.5348 28.5142 22.905 28.4029 23.3448 28.4029ZM23.1862 32.0187C23.4033 32.0187 23.5926 31.9574 23.754 31.835C23.9154 31.7069 23.9962 31.5399 23.9962 31.3339V30.8997C23.9962 30.8719 23.9822 30.858 23.9544 30.858H23.3949C23.15 30.858 22.9551 30.9108 22.8104 31.0166C22.6712 31.1224 22.6016 31.2755 22.6016 31.4759C22.6016 31.654 22.6545 31.7904 22.7603 31.8851C22.8716 31.9741 23.0136 32.0187 23.1862 32.0187ZM27.3993 32.8036C26.9484 32.8036 26.5782 32.6895 26.2887 32.4612C26.0048 32.2274 25.8322 31.9101 25.771 31.5093C25.7264 31.281 25.7042 30.9749 25.7042 30.5907C25.7042 30.24 25.7264 29.9366 25.771 29.6805C25.8322 29.2908 26.0076 28.9819 26.2971 28.7536C26.5865 28.5198 26.954 28.4029 27.3993 28.4029C27.828 28.4029 28.1898 28.5142 28.4849 28.7369C28.7799 28.954 28.9581 29.2407 29.0193 29.597C29.0249 29.6193 29.0305 29.6471 29.036 29.6805C29.0416 29.7139 29.0444 29.7557 29.0444 29.8058V29.8225C29.0444 29.8726 29.0138 29.9032 28.9525 29.9143L28.1926 29.9895H28.1759C28.1258 29.9895 28.0952 29.9589 28.0841 29.8976C28.0841 29.8587 28.0785 29.8169 28.0674 29.7724C28.0395 29.6221 27.9644 29.4968 27.8419 29.3966C27.725 29.2908 27.5747 29.238 27.391 29.238C27.2073 29.238 27.0542 29.2936 26.9317 29.405C26.8148 29.5163 26.7424 29.6638 26.7146 29.8475C26.6868 30.0591 26.6728 30.3096 26.6728 30.5991C26.6728 30.9164 26.6895 31.1725 26.7229 31.3673C26.7508 31.551 26.8231 31.6986 26.9401 31.8099C27.057 31.9157 27.2073 31.9686 27.391 31.9686C27.5803 31.9686 27.7333 31.9157 27.8503 31.8099C27.9727 31.6986 28.0451 31.565 28.0674 31.4091L28.0757 31.3256C28.0813 31.2977 28.0952 31.2755 28.1175 31.2588C28.1397 31.2365 28.1648 31.2282 28.1926 31.2337L28.9442 31.3005C29.011 31.3117 29.0444 31.3478 29.0444 31.4091L29.0277 31.551C28.9776 31.9296 28.805 32.233 28.5099 32.4612C28.2149 32.6895 27.8447 32.8036 27.3993 32.8036ZM29.8758 32.7368C29.8479 32.7368 29.8229 32.7285 29.8006 32.7118C29.7839 32.6895 29.7756 32.6644 29.7756 32.6366V26.9917C29.7756 26.9638 29.7839 26.9416 29.8006 26.9249C29.8229 26.9026 29.8479 26.8915 29.8758 26.8915H30.644C30.6719 26.8915 30.6941 26.9026 30.7108 26.9249C30.7331 26.9416 30.7442 26.9638 30.7442 26.9917V29.9811C30.7442 29.9978 30.7498 30.009 30.7609 30.0145C30.7721 30.0145 30.7832 30.009 30.7943 29.9978L31.9217 28.5282C31.9551 28.4892 31.9968 28.4697 32.0469 28.4697H32.8903C32.946 28.4697 32.9738 28.4892 32.9738 28.5282C32.9738 28.5449 32.9655 28.5671 32.9488 28.595L31.9801 29.8893C31.969 29.906 31.969 29.9255 31.9801 29.9477L33.0991 32.6199C33.1046 32.631 33.1074 32.6477 33.1074 32.67C33.1074 32.7145 33.0796 32.7368 33.0239 32.7368H32.2223C32.161 32.7368 32.1221 32.709 32.1054 32.6533L31.3455 30.6575C31.3399 30.6408 31.3316 30.6325 31.3204 30.6325C31.3149 30.6325 31.3065 30.6381 31.2954 30.6492L30.7609 31.3256C30.7498 31.3478 30.7442 31.3645 30.7442 31.3757V32.6366C30.7442 32.6644 30.7331 32.6895 30.7108 32.7118C30.6941 32.7285 30.6719 32.7368 30.644 32.7368H29.8758Z" fill="white"/>
</g>
<defs>
<clipPath id="clip0_32_2778">
<rect width="50" height="50" fill="white" transform="translate(0.550598 0.592285)"/>
</clipPath>
</defs>
</svg>
