<svg width="50" height="50" viewBox="0 0 50 50" fill="none" xmlns="http://www.w3.org/2000/svg">
<path d="M25.0001 0L30.6129 17.2746H48.7765L34.0818 27.9508L39.6947 45.2254L25.0001 34.5491L10.3054 45.2254L15.9183 27.9508L1.22365 17.2746H19.3872L25.0001 0Z" fill="white"/>
<path d="M21.1482 19.4505L25.0669 8.08545V31.4209L14.617 38.8132L18.5357 27.0272L8.0858 19.4505H21.1482Z" fill="#117BD4"/>
<path d="M25.0001 2.2519L29.9511 17.4896L30.1073 17.9705H30.6129H46.6348L33.6728 27.3879L33.2638 27.685L33.42 28.1659L38.3711 43.4036L25.4091 33.9862L25.0001 33.689L24.591 33.9862L11.6291 43.4036L16.5801 28.1659L16.7363 27.685L16.3273 27.3879L3.36533 17.9705H19.3872H19.8928L20.049 17.4896L25.0001 2.2519Z" stroke="#117BD4" stroke-width="1.39175"/>
</svg>
