<svg width="50" height="49" viewBox="0 0 50 49" fill="none" xmlns="http://www.w3.org/2000/svg">
<path d="M37.9154 29.813L25.2479 17.1455L26.0136 16.3797L12.5165 2.88271C9.99584 0.362013 5.95949 0.362013 3.43867 2.88271C0.917844 5.40341 0.917968 9.43976 3.43867 11.9606L16.9437 25.4656L17.7014 24.7078L30.369 37.3754L37.9154 29.813Z" fill="white"/>
<path d="M16.9344 21.1119L5.56716 9.82441C4.26696 8.5242 4.26696 6.39429 5.56716 5.02227C6.86737 3.72207 8.99728 3.72207 10.3693 5.02227L21.7445 16.3816L16.9344 21.1119Z" fill="#117BD4"/>
<path d="M44.3992 36.6723L38.8313 33.314L33.8696 38.2757L37.2279 43.8436L48.8185 48.2628L44.3992 36.6723Z" fill="white"/>
<path d="M23.378 26.2711L26.8864 22.7627L25.8091 21.6854L22.3007 25.1938L23.378 26.2711Z" fill="#117BD4"/>
<path d="M26.4376 29.3258L29.946 25.8174L28.8687 24.7401L25.3603 28.2485L26.4376 29.3258Z" fill="#117BD4"/>
<path d="M29.4823 32.3719L32.9907 28.8635L31.9134 27.7862L28.405 31.2946L29.4823 32.3719Z" fill="#117BD4"/>
<path d="M39.3525 39.8857L40.43 38.8086L39.3528 37.7311L38.2754 38.8083L39.3525 39.8857Z" fill="#117BD4"/>
<path d="M42.0181 42.5561L43.0954 41.4788L42.0181 40.4015L40.9408 41.4788L42.0181 42.5561Z" fill="#117BD4"/>
<path d="M49.1564 47.7979L44.761 36.2787C44.6818 36.1282 44.6105 35.9776 44.46 35.8984L39.0825 32.6422L39.7636 31.9608L38.1005 30.2971L38.7024 29.695L26.1339 17.1934L26.8942 16.4328L13.4861 3.0281C14.2464 2.49734 15.2997 2.5765 15.9887 3.1786L25.6032 12.7965C26.2844 13.4779 27.1158 13.7789 28.0267 13.7789C28.9375 13.7789 29.769 13.4778 30.4501 12.7965L29.3888 11.7348C28.6286 12.4954 27.4168 12.4954 26.6645 11.7348L17.05 2.11694C16.3689 1.43556 15.5374 1.13457 14.6266 1.13457C13.795 1.13457 13.0347 1.43568 12.3536 1.96645C11.142 0.90479 9.5501 0.374023 7.88694 0.374023C5.9942 0.374023 4.17264 1.13457 2.88961 2.49721C0.0860302 5.30179 0.0860302 9.84927 2.88961 12.5746L16.8203 26.5102L17.5806 25.7496L30.1491 38.3305L30.751 37.7205L32.4142 39.3842L33.0953 38.7029L36.3503 44.0822C36.4295 44.2327 36.58 44.312 36.7305 44.3833L48.2537 48.7803C48.3328 48.8595 48.9348 48.7803 49.0852 48.6298C49.1564 48.408 49.3148 48.0989 49.1564 47.7979ZM16.4402 24.0147L3.9509 11.513C1.75716 9.31851 1.75716 5.75339 3.9509 3.55887C5.01218 2.49721 6.37434 1.89512 7.88694 1.89512C9.39954 1.89512 10.7618 2.50518 11.9022 3.55887L24.4708 16.1318L16.4402 24.0147ZM30.0779 36.136L18.6419 24.6959L25.0806 18.2549L36.5167 29.695L30.0779 36.136ZM37.4986 43.0998L34.2436 37.7997C33.713 37.1183 33.0318 37.5699 32.9527 37.7997L31.8202 36.6588L37.0473 31.43L38.1797 32.5628C37.95 32.5628 37.4986 33.3947 38.1797 33.8541L43.4779 37.1103L47.1922 46.8074L37.4986 43.0998Z" fill="#117BD4"/>
</svg>
