<svg width="50" height="50" viewBox="0 0 50 50" fill="none" xmlns="http://www.w3.org/2000/svg">
<path d="M24.9998 49.5132C11.484 49.5132 0.488129 38.5173 0.488129 25.0015C0.488129 11.4856 11.484 0.489746 24.9998 0.489746C38.5157 0.489746 49.5116 11.4856 49.5116 25.0015C49.5116 38.5173 38.5157 49.5132 24.9998 49.5132Z" fill="white"/>
<path d="M25 46.9846C37.14 46.9846 46.9814 37.1432 46.9814 25.0032C46.9814 12.8632 37.14 3.02173 25 3.02173C12.86 3.02173 3.01855 12.8632 3.01855 25.0032C3.01855 37.1432 12.86 46.9846 25 46.9846Z" fill="white"/>
<path d="M35.9338 13.999C33.126 11.208 29.2602 9.48022 24.9979 9.48022C20.7356 9.48022 16.8698 11.208 14.062 13.999H35.9338Z" fill="white"/>
<path d="M14.062 36.0042C16.8698 38.7952 20.7356 40.5229 24.9979 40.5229C29.2602 40.5229 33.126 38.7952 35.9338 36.0042C29.0735 36.0042 20.9217 36.0042 14.062 36.0042Z" fill="white"/>
<path d="M3.01855 25.0017C3.01855 29.0075 4.09629 32.7659 5.97617 36.0038H44.024C45.9037 32.7661 46.9816 29.0075 46.9816 25.0017C46.9816 20.9958 45.9039 17.2374 44.024 13.9995C34.2053 13.9995 15.7977 13.9995 5.97617 13.9995C4.09629 17.2374 3.01855 20.9958 3.01855 25.0017Z" fill="#117BD4"/>
<path d="M10.0407 28.6714C10.0174 28.6097 9.95843 28.5688 9.89261 28.5688H9.19457C9.12875 28.5688 9.06976 28.6097 9.04672 28.6712L7.27758 33.3616C7.25922 33.4103 7.26586 33.4647 7.29554 33.5073C7.32504 33.5499 7.37367 33.5755 7.42562 33.5755H8.08988C8.15648 33.5755 8.21586 33.5339 8.23851 33.4712L8.60062 32.4706H10.4799L10.842 33.4712C10.8647 33.5339 10.9241 33.5755 10.9907 33.5755H11.6549C11.7069 33.5755 11.7553 33.5501 11.785 33.5073C11.8145 33.4647 11.8213 33.4102 11.803 33.3618L10.0407 28.6714ZM10.1891 31.6731H8.89125L9.54027 29.8825L10.1891 31.6731Z" fill="white"/>
<path d="M15.8003 28.4802H15.1835C15.0962 28.4802 15.0253 28.5511 15.0253 28.6384V31.5056C15.0253 31.9285 14.9364 32.2419 14.7608 32.4369C14.5874 32.6296 14.3487 32.7234 14.0312 32.7234C13.7079 32.7234 13.4644 32.63 13.2862 32.4382C13.1073 32.2458 13.0167 31.9322 13.0167 31.5056V28.6384C13.0167 28.5511 12.9458 28.4802 12.8585 28.4802H12.2417C12.1544 28.4802 12.0835 28.5511 12.0835 28.6384V31.5056C12.0835 32.1964 12.262 32.7275 12.6136 33.0839C12.9657 33.4414 13.438 33.6224 14.0173 33.6224C14.6009 33.6224 15.0755 33.4412 15.4278 33.0839C15.7796 32.7271 15.9581 32.196 15.9581 31.5054V28.6382C15.9585 28.5511 15.8876 28.4802 15.8003 28.4802Z" fill="white"/>
<path d="M19.6864 28.4802H16.3719C16.2846 28.4802 16.2137 28.5511 16.2137 28.6384V29.14C16.2137 29.2273 16.2846 29.2982 16.3719 29.2982H17.5626V33.4169C17.5626 33.5042 17.6335 33.5751 17.7208 33.5751H18.3376C18.4249 33.5751 18.4958 33.5042 18.4958 33.4169V29.2982H19.6864C19.7737 29.2982 19.8446 29.2273 19.8446 29.14V28.6384C19.8444 28.5511 19.7737 28.4802 19.6864 28.4802Z" fill="white"/>
<path d="M23.9593 28.4802H23.3357C23.2484 28.4802 23.1775 28.5511 23.1775 28.6384V30.5476H21.0674V28.6384C21.0674 28.5511 20.9965 28.4802 20.9092 28.4802H20.2924C20.2051 28.4802 20.1342 28.5511 20.1342 28.6384V33.4169C20.1342 33.5042 20.2051 33.5751 20.2924 33.5751H20.9092C20.9965 33.5751 21.0674 33.5042 21.0674 33.4169V31.3654H23.1775V33.4169C23.1775 33.5042 23.2484 33.5751 23.3357 33.5751H23.9593C24.0467 33.5751 24.1176 33.5042 24.1176 33.4169V28.6384C24.1176 28.5511 24.0467 28.4802 23.9593 28.4802Z" fill="white"/>
<path d="M27.5882 28.4802H24.9514C24.8641 28.4802 24.7932 28.5511 24.7932 28.6384V33.4169C24.7932 33.5042 24.8641 33.5751 24.9514 33.5751H27.5882C27.6755 33.5751 27.7464 33.5042 27.7464 33.4169V32.9154C27.7464 32.8281 27.6755 32.7572 27.5882 32.7572H25.7263V31.406H27.3847C27.472 31.406 27.5429 31.3351 27.5429 31.2478V30.7734C27.5429 30.6861 27.472 30.6152 27.3847 30.6152H25.7263V29.298H27.5882C27.6755 29.298 27.7464 29.2271 27.7464 29.1398V28.6382C27.7464 28.5511 27.6755 28.4802 27.5882 28.4802Z" fill="white"/>
<path d="M32.0953 28.4802H31.4785C31.3912 28.4802 31.3203 28.5511 31.3203 28.6384V31.8912L29.1299 28.5517C29.1006 28.5072 29.051 28.4802 28.9977 28.4802H28.3809C28.2936 28.4802 28.2227 28.5511 28.2227 28.6384V33.4169C28.2227 33.5042 28.2936 33.5751 28.3809 33.5751H28.9977C29.085 33.5751 29.1559 33.5042 29.1559 33.4169V30.1703L31.3463 33.5039C31.3756 33.5484 31.4252 33.5751 31.4785 33.5751H32.0953C32.1826 33.5751 32.2535 33.5042 32.2535 33.4169V28.6384C32.2535 28.5511 32.1826 28.4802 32.0953 28.4802Z" fill="white"/>
<path d="M36.015 28.4802H32.7007C32.6134 28.4802 32.5425 28.5511 32.5425 28.6384V29.14C32.5425 29.2273 32.6134 29.2982 32.7007 29.2982H33.8913V33.4169C33.8913 33.5042 33.9622 33.5751 34.0495 33.5751H34.6665C34.7538 33.5751 34.8247 33.5042 34.8247 33.4169V29.2982H36.0154C36.1027 29.2982 36.1736 29.2273 36.1736 29.14V28.6384C36.173 28.5511 36.1023 28.4802 36.015 28.4802Z" fill="white"/>
<path d="M37.2412 28.4802H36.6244C36.5371 28.4802 36.4662 28.5511 36.4662 28.6384V33.4169C36.4662 33.5042 36.5371 33.5751 36.6244 33.5751H37.2412C37.3285 33.5751 37.3994 33.5042 37.3994 33.4169V28.6384C37.3994 28.5511 37.3285 28.4802 37.2412 28.4802Z" fill="white"/>
<path d="M42.5767 31.6944H41.9261C41.8609 31.6944 41.8021 31.7346 41.7787 31.7956C41.6671 32.0844 41.4931 32.3077 41.2464 32.4782C41.0037 32.6461 40.6986 32.7313 40.34 32.7313C40.0593 32.7313 39.8056 32.6627 39.5857 32.5276C39.3658 32.3924 39.189 32.1959 39.0611 31.9434C38.9308 31.687 38.8646 31.3805 38.8646 31.0323C38.8646 30.6795 38.9306 30.3694 39.0613 30.1106C39.1894 29.8563 39.3658 29.6586 39.5857 29.5235C39.8056 29.3883 40.0595 29.3198 40.34 29.3198C40.6982 29.3198 41.0033 29.4049 41.2464 29.5729C41.4931 29.7434 41.6671 29.9668 41.7787 30.2555C41.8021 30.3165 41.8609 30.3567 41.9261 30.3567H42.5767C42.6265 30.3567 42.6732 30.3333 42.7031 30.2934C42.733 30.2536 42.7423 30.202 42.7285 30.1543C42.5746 29.626 42.2912 29.2028 41.8857 28.8963C41.4798 28.5895 40.9623 28.4338 40.3466 28.4338C39.8722 28.4338 39.446 28.5452 39.0794 28.7647C38.7117 28.9846 38.4216 29.2967 38.2169 29.6917C38.0142 30.0833 37.9111 30.534 37.9111 31.0319C37.9111 31.5256 38.014 31.9733 38.2171 32.3624C38.4218 32.7549 38.7119 33.0657 39.0792 33.2858C39.4458 33.5053 39.8722 33.6167 40.3466 33.6167C40.9621 33.6167 41.48 33.461 41.8857 33.1543C42.2912 32.8479 42.5748 32.4247 42.7285 31.8963C42.7425 31.8485 42.733 31.7971 42.7031 31.7573C42.6732 31.7176 42.6265 31.6944 42.5767 31.6944Z" fill="white"/>
<path d="M12.5527 17.5132C12.5314 17.5132 12.5139 17.5306 12.5139 17.5521V18.5622C12.5139 18.5837 12.5312 18.6011 12.5527 18.6011H13.2855C13.5553 18.6011 13.7738 18.8196 13.7738 19.0894V25.9315C13.7738 25.9528 13.7912 25.9704 13.8127 25.9704H14.9537C14.975 25.9704 14.9926 25.953 14.9926 25.9315V17.5521C14.9926 17.5306 14.9752 17.5132 14.9537 17.5132H12.5527Z" fill="white"/>
<path d="M12.5527 17.5132C12.5314 17.5132 12.5139 17.5306 12.5139 17.5521V18.5622C12.5139 18.5837 12.5312 18.6011 12.5527 18.6011H13.2855C13.5553 18.6011 13.7738 18.8196 13.7738 19.0894V25.9315C13.7738 25.9528 13.7912 25.9704 13.8127 25.9704H14.9537C14.975 25.9704 14.9926 25.953 14.9926 25.9315V17.5521C14.9926 17.5306 14.9752 17.5132 14.9537 17.5132H12.5527Z" fill="white"/>
<path d="M19.4568 17.3958C18.1644 17.3958 16.4464 17.8409 16.4464 21.6897C16.4464 25.5598 18.1644 26.0075 19.4568 26.0075C20.5753 26.0075 21.3425 25.6319 21.8021 24.8594C22.7144 23.325 22.7144 20.0786 21.8019 18.5438C21.3423 17.7713 20.5751 17.3958 19.4568 17.3958ZM19.4568 24.9076C18.5306 24.9076 17.9537 24.4039 17.7418 23.4108C17.5421 22.4795 17.5421 20.9112 17.7418 19.9862C17.9562 18.9913 18.5171 18.5077 19.4568 18.5077C19.974 18.5077 20.3578 18.6381 20.63 18.9065C20.9042 19.177 21.0855 19.5301 21.1839 19.986C21.3828 20.9106 21.3828 22.4787 21.1839 23.4108C20.9687 24.4182 20.4037 24.9076 19.4568 24.9076Z" fill="white"/>
<path fill-rule="evenodd" clip-rule="evenodd" d="M19.4568 17.3958C18.1644 17.3958 16.4464 17.8409 16.4464 21.6897C16.4464 25.5598 18.1644 26.0075 19.4568 26.0075C20.5753 26.0075 21.3425 25.6319 21.8021 24.8594C22.7144 23.325 22.7144 20.0786 21.8019 18.5438C21.3423 17.7713 20.5751 17.3958 19.4568 17.3958ZM17.7418 23.4108C17.9537 24.4039 18.5306 24.9076 19.4568 24.9076C20.4037 24.9076 20.9687 24.4182 21.1839 23.4108C21.3828 22.4787 21.3828 20.9106 21.1839 19.986C21.0855 19.5301 20.9042 19.177 20.63 18.9065C20.3578 18.6381 19.974 18.5077 19.4568 18.5077C18.5171 18.5077 17.9562 18.9913 17.7418 19.9862C17.5421 20.9112 17.5421 22.4795 17.7418 23.4108Z" fill="white"/>
<path d="M26.7552 17.3958C25.463 17.3958 23.7449 17.8409 23.7449 21.6897C23.7449 25.5598 25.4628 26.0075 26.7552 26.0075C28.0527 26.0075 29.7775 25.5598 29.7775 21.6897C29.7775 17.8409 28.0527 17.3958 26.7552 17.3958ZM26.7552 24.9076C25.8292 24.9076 25.2521 24.4039 25.0402 23.4106C24.8406 22.4797 24.8406 20.9114 25.04 19.9862C25.2544 18.9913 25.8154 18.5075 26.7552 18.5075C27.7029 18.5075 28.2677 18.9913 28.4822 19.9862C28.6814 20.9106 28.6814 22.4787 28.4826 23.4108C28.2666 24.4182 27.7017 24.9076 26.7552 24.9076Z" fill="white"/>
<path fill-rule="evenodd" clip-rule="evenodd" d="M26.7552 17.3958C25.463 17.3958 23.7449 17.8409 23.7449 21.6897C23.7449 25.5598 25.4628 26.0075 26.7552 26.0075C28.0527 26.0075 29.7775 25.5598 29.7775 21.6897C29.7775 17.8409 28.0527 17.3958 26.7552 17.3958ZM25.0402 23.4106C25.2521 24.4039 25.8292 24.9076 26.7552 24.9076C27.7017 24.9076 28.2666 24.4182 28.4826 23.4108C28.6814 22.4787 28.6814 20.9106 28.4822 19.9862C28.2677 18.9913 27.7029 18.5075 26.7552 18.5075C25.8154 18.5075 25.2544 18.9913 25.04 19.9862C24.8406 20.9114 24.8406 22.4797 25.0402 23.4106Z" fill="white"/>
<path d="M36.1922 17.5012C36.1784 17.5012 36.1653 17.5088 36.1582 17.5209L31.3446 25.9121C31.3377 25.9241 31.3377 25.9391 31.3447 25.951C31.3514 25.9627 31.3645 25.9703 31.3781 25.9703H32.4483C32.4621 25.9703 32.4754 25.9627 32.4824 25.9504L37.2959 17.5594C37.3028 17.5477 37.3028 17.5329 37.2957 17.5209C37.2889 17.509 37.2758 17.5012 37.2621 17.5012H36.1922Z" fill="white"/>
<path d="M36.1922 17.5012C36.1784 17.5012 36.1653 17.5088 36.1582 17.5209L31.3446 25.9121C31.3377 25.9241 31.3377 25.9391 31.3447 25.951C31.3514 25.9627 31.3645 25.9703 31.3781 25.9703H32.4483C32.4621 25.9703 32.4754 25.9627 32.4824 25.9504L37.2959 17.5594C37.3028 17.5477 37.3028 17.5329 37.2957 17.5209C37.2889 17.509 37.2758 17.5012 37.2621 17.5012H36.1922Z" fill="white"/>
<path d="M32.4926 17.5012C31.7155 17.5012 31.0833 18.1334 31.0833 18.9106C31.0833 19.6877 31.7155 20.32 32.4926 20.32C33.2698 20.32 33.902 19.6877 33.902 18.9106C33.902 18.1334 33.2698 17.5012 32.4926 17.5012Z" fill="white"/>
<path d="M32.4926 17.5012C31.7155 17.5012 31.0833 18.1334 31.0833 18.9106C31.0833 19.6877 31.7155 20.32 32.4926 20.32C33.2698 20.32 33.902 19.6877 33.902 18.9106C33.902 18.1334 33.2698 17.5012 32.4926 17.5012Z" fill="white"/>
<path d="M32.4903 19.3994C32.4571 19.3994 32.426 19.3955 32.3948 19.3896C32.3635 19.3838 32.3323 19.374 32.3028 19.3623C32.2737 19.3506 32.2462 19.335 32.2188 19.3174C32.1915 19.2999 32.168 19.2784 32.1446 19.257C32.0528 19.1672 32.002 19.0405 32.002 18.9117C32.002 18.783 32.053 18.6581 32.1446 18.5665C32.168 18.545 32.1915 18.5236 32.2188 18.506C32.2462 18.4884 32.2735 18.4748 32.3028 18.4611C32.3321 18.4494 32.3635 18.4397 32.3948 18.4338C32.4571 18.4221 32.5215 18.4221 32.586 18.4338C32.6172 18.4397 32.6467 18.4494 32.6758 18.4611C32.7071 18.4748 32.7344 18.4884 32.7618 18.506C32.7872 18.5236 32.8126 18.545 32.834 18.5665C32.9258 18.6581 32.9784 18.783 32.9784 18.9117C32.9784 19.0405 32.9256 19.1672 32.834 19.257C32.8126 19.2784 32.7872 19.2999 32.7618 19.3174C32.7342 19.335 32.7071 19.3506 32.6758 19.3623C32.6467 19.374 32.6172 19.3838 32.586 19.3896C32.5547 19.3955 32.5217 19.3994 32.4903 19.3994Z" fill="white"/>
<path d="M36.0745 23.1357C35.2973 23.1357 34.6651 23.768 34.6651 24.5451C34.6651 25.3223 35.2973 25.9545 36.0745 25.9545C36.8516 25.9545 37.4838 25.3223 37.4838 24.5451C37.4838 23.768 36.8514 23.1357 36.0745 23.1357Z" fill="white"/>
<path d="M36.0745 23.1357C35.2973 23.1357 34.6651 23.768 34.6651 24.5451C34.6651 25.3223 35.2973 25.9545 36.0745 25.9545C36.8516 25.9545 37.4838 25.3223 37.4838 24.5451C37.4838 23.768 36.8514 23.1357 36.0745 23.1357Z" fill="white"/>
<path d="M36.0756 25.0325C36.0443 25.0325 36.0111 25.0286 35.9799 25.0227C35.9486 25.0169 35.9174 25.0071 35.8881 24.9954C35.8588 24.9837 35.8314 24.9681 35.8039 24.9505C35.7785 24.933 35.7531 24.9115 35.7297 24.8901C35.6398 24.7984 35.5873 24.6736 35.5873 24.5448C35.5873 24.5136 35.5912 24.4804 35.597 24.4492C35.6029 24.418 35.6127 24.3868 35.6244 24.3576C35.6363 24.3283 35.6519 24.301 35.6693 24.2737C35.6869 24.2483 35.7084 24.223 35.7299 24.1996C35.7533 24.1781 35.7787 24.1566 35.8041 24.1391C35.8316 24.1215 35.8588 24.1059 35.8883 24.0942C35.9174 24.0825 35.9488 24.0728 35.9801 24.0669C36.1384 24.0357 36.3082 24.0864 36.4215 24.1996C36.4429 24.223 36.4646 24.2483 36.4822 24.2737C36.4998 24.301 36.5154 24.3283 36.5269 24.3576C36.5388 24.3868 36.5484 24.418 36.5545 24.4492C36.5601 24.4804 36.5642 24.5136 36.5642 24.5448C36.5642 24.6736 36.5113 24.7984 36.4217 24.8901C36.3295 24.9798 36.2045 25.0325 36.0756 25.0325Z" fill="white"/>
<path d="M25 50C11.2148 50 0 38.7852 0 25C0 11.2148 11.2148 0 25 0C38.785 0 50 11.2148 50 25C50 38.7852 38.785 50 25 50ZM25 0.976562C11.7535 0.976562 0.976562 11.7535 0.976562 25C0.976562 38.2465 11.7535 49.0234 25 49.0234C38.2465 49.0234 49.0234 38.2465 49.0234 25C49.0234 11.7535 38.2465 0.976562 25 0.976562Z" fill="#117BD4"/>
<path d="M24.9965 47.4705C12.6066 47.4705 2.52676 37.3906 2.52676 25.0007C2.52676 12.6109 12.6066 2.53101 24.9965 2.53101C37.3863 2.53101 47.4662 12.6109 47.4662 25.0007C47.4662 37.3906 37.3863 47.4705 24.9965 47.4705ZM24.9965 3.50757C13.1451 3.50757 3.50333 13.1494 3.50333 25.0007C3.50333 36.8521 13.1451 46.4939 24.9965 46.4939C36.8479 46.4939 46.4897 36.8521 46.4897 25.0007C46.4897 13.1494 36.8479 3.50757 24.9965 3.50757Z" fill="#117BD4"/>
<path d="M44.0203 36.4909H5.97247C5.79844 36.4909 5.63751 36.3983 5.5502 36.2477C3.57227 32.8407 2.52676 28.9514 2.52676 25.0004C2.52676 21.0495 3.57227 17.1602 5.5502 13.7532C5.63751 13.6026 5.79844 13.51 5.97247 13.51H44.0203C44.1943 13.51 44.3553 13.6026 44.4426 13.7532C46.4205 17.16 47.466 21.0491 47.466 25.0004C47.466 28.9518 46.4203 32.8409 44.4426 36.2477C44.3553 36.3981 44.1943 36.4909 44.0203 36.4909ZM6.25567 35.5143H43.7371C45.5389 32.3151 46.4897 28.6862 46.4897 25.0004C46.4897 21.3147 45.5389 17.686 43.7371 14.4866H6.25567C4.4543 17.6862 3.50333 21.3151 3.50333 25.0004C3.50333 28.6858 4.4543 32.3147 6.25567 35.5143Z" fill="#117BD4"/>
<path d="M35.9372 14.487H14.0654C13.8675 14.487 13.6894 14.3677 13.614 14.1849C13.5386 14.002 13.581 13.7919 13.721 13.6524C16.7447 10.647 20.7507 8.9917 25.0013 8.9917C29.2519 8.9917 33.2578 10.647 36.2816 13.6524C36.4218 13.7919 36.4642 14.002 36.3888 14.1849C36.3132 14.3679 36.1351 14.487 35.9372 14.487ZM15.3193 13.5104H34.6833C31.9732 11.2179 28.5794 9.96826 25.0013 9.96826C21.4232 9.96826 18.0294 11.2179 15.3193 13.5104Z" fill="#117BD4"/>
<path d="M25.0012 41.0092C20.7508 41.0092 16.7448 39.354 13.7212 36.3485C13.5809 36.209 13.5385 35.9989 13.6141 35.8161C13.6895 35.6333 13.8676 35.5139 14.0655 35.5139H35.9374C36.1352 35.5139 36.3133 35.6333 36.3889 35.8161C36.4643 35.9989 36.4219 36.209 36.2817 36.3485C33.2577 39.354 29.2518 41.0092 25.0012 41.0092ZM15.3192 36.4905C18.0294 38.7833 21.4231 40.0327 25.0012 40.0327C28.5794 40.0327 31.9731 38.7833 34.6833 36.4905H15.3192Z" fill="#117BD4"/>
</svg>
