<svg width="30" height="34" viewBox="0 0 30 34" fill="none" xmlns="http://www.w3.org/2000/svg">
<path d="M29.0751 10.8957C29.1731 10.7364 29.2063 10.5382 29.1893 10.3459C29.1893 10.291 29.1957 10.2372 29.1859 10.1814C29.1487 9.97073 29.045 9.80809 28.9124 9.71006L22.8907 0.264181C22.8816 0.249835 22.8675 0.244106 22.8576 0.230798C22.8468 0.216001 22.8418 0.196783 22.8298 0.182978C22.8066 0.156181 22.778 0.14567 22.7526 0.124782C22.7242 0.101324 22.6983 0.0767822 22.6672 0.0604062C22.6201 0.035549 22.5723 0.0256242 22.5228 0.0182707C22.5013 0.0149775 22.4821 0 22.4601 0H6.73342C6.71168 0 6.69262 0.0148873 6.67127 0.0181354C6.62146 0.0254437 6.57329 0.0354588 6.52595 0.0605416C6.49513 0.0768273 6.46949 0.101188 6.44131 0.124421C6.41577 0.145399 6.38711 0.156001 6.36373 0.182978C6.35176 0.196783 6.34679 0.216001 6.33592 0.230798C6.32605 0.244106 6.312 0.249835 6.30284 0.264181L0.280808 9.7107C0.148516 9.80886 0.0447456 9.97131 0.007653 10.1814C-0.00211723 10.2372 0.00425913 10.291 0.00425913 10.3459C-0.0127789 10.5382 0.0205086 10.7364 0.118451 10.8957L14.1602 33.7257C14.1613 33.7275 14.1631 33.7281 14.1643 33.73C14.1707 33.7402 14.178 33.7486 14.1848 33.7583C14.1949 33.7729 14.2074 33.7837 14.2185 33.7972C14.2545 33.8412 14.2931 33.8785 14.336 33.9083C14.3464 33.9156 14.3551 33.9247 14.3659 33.9311C14.3696 33.9334 14.3719 33.9379 14.3757 33.9401C14.3833 33.9444 14.3913 33.9425 14.3989 33.9464C14.4622 33.978 14.5281 34 14.5968 34C14.6655 34 14.7313 33.978 14.7946 33.9464C14.8022 33.9425 14.8103 33.9444 14.8178 33.9401C14.8217 33.9379 14.8239 33.9334 14.8277 33.9311C14.8384 33.9247 14.8471 33.9156 14.8575 33.9083C14.9005 33.8785 14.9391 33.8412 14.9751 33.7972C14.9862 33.7837 14.9986 33.7729 15.0088 33.7583C15.0156 33.7486 15.0229 33.7402 15.0293 33.73C15.0304 33.7281 15.0323 33.7275 15.0334 33.7257L29.0751 10.8957ZM6.74237 1.87548L13.3587 11.8261H7.92093L1.61885 9.91222L6.74237 1.87548ZM27.5747 9.91222L21.2726 11.8261H15.8349L22.4512 1.87548L27.5747 9.91222ZM20.4851 13.3043L14.5968 31.3851L8.70845 13.3043H20.4851ZM14.5968 11.4424L7.9715 1.47826H21.2221L14.5968 11.4424ZM7.45289 13.2013L12.485 28.6522L1.95484 11.5316L7.45289 13.2013ZM21.7407 13.2013L27.2387 11.5316L16.7086 28.6522L21.7407 13.2013Z" fill="#013A65"/>
</svg>
