<svg width="24" height="24" viewBox="0 0 24 24" fill="none" xmlns="http://www.w3.org/2000/svg">
<path d="M17.9667 0.00952148H6.01427C2.70262 0.00952148 0 2.71214 0 6.0238V17.9952C0 21.2879 2.70262 23.9905 6.01427 23.9905H17.9857C21.2974 23.9905 24 21.2879 24 17.9762V6.0238C23.981 2.71214 21.2784 0.00952148 17.9667 0.00952148ZM17.9477 8.99287C17.9477 9.1261 17.9477 9.25932 17.9477 9.39255C17.9477 13.3894 14.8644 17.9952 9.21174 17.9952C7.47978 17.9952 5.86201 17.5004 4.51071 16.6439C4.75813 16.663 4.98652 16.682 5.23394 16.682C6.68041 16.682 7.99366 16.2062 9.04044 15.3878C7.68914 15.3688 6.56622 14.4933 6.16653 13.2942C6.35686 13.3323 6.54718 13.3513 6.73751 13.3513C7.023 13.3513 7.30849 13.3132 7.55591 13.2371C6.18557 12.9516 5.13878 11.7336 5.13878 10.268V10.23C5.51943 10.4584 6.01427 10.5916 6.50912 10.6106C5.69072 10.0777 5.13878 9.14513 5.13878 8.09834C5.13878 7.5464 5.29104 7.03252 5.55749 6.57574C7.0801 8.40286 9.32593 9.60191 11.8763 9.73514C11.8192 9.50675 11.8002 9.27836 11.8002 9.04997C11.8002 7.3751 13.1705 6.0238 14.8644 6.0238C15.7399 6.0238 16.5393 6.38541 17.1102 6.97542C17.8144 6.84219 18.4615 6.59477 19.0515 6.23315C18.8232 6.93736 18.3283 7.52736 17.7002 7.90801C18.3283 7.83188 18.9183 7.67962 19.4703 7.4322C19.0515 8.04124 18.5377 8.57415 17.9477 8.99287Z" fill="white"/>
</svg>
