<svg width="191" height="31" viewBox="0 0 191 31" fill="none" xmlns="http://www.w3.org/2000/svg">
<path d="M23.0071 24.18H19.8273L23.5972 6.35727L12.2875 24.18H9.86168L5.50172 6.45574L1.73183 24.18H-1.448L3.46925 0.908691H7.23915L11.8286 19.6177L23.6628 0.908691H27.9244L23.0071 24.18Z" fill="white"/>
<path d="M30.9659 30.4164H27.4255L33.359 21.4557L29.4907 8.39228H32.8345L35.6209 18.3048L41.7839 8.39228H45.4226L30.9659 30.4164Z" fill="white"/>
<path d="M60.0074 24.18H44.9934L49.9106 0.908691H55.0902L51.1891 19.2238H61.0564L60.0074 24.18Z" fill="white"/>
<path d="M71.5509 11.9371C70.3926 11.9371 69.442 12.4185 68.6989 13.3813C67.9777 14.3441 67.6171 15.482 67.6171 16.7949C67.6171 17.8234 67.8903 18.633 68.4367 19.2238C69.0049 19.8146 69.7261 20.11 70.6002 20.11C71.5837 20.11 72.4797 19.6833 73.2883 18.8299C74.1188 17.9765 74.534 16.773 74.534 15.2194C74.534 14.1691 74.2609 13.3704 73.7145 12.8234C73.19 12.2544 72.4688 11.959 71.5509 11.9371ZM79.4841 14.9897C79.4841 17.6374 78.6099 19.9131 76.8615 21.8168C75.135 23.7205 72.9387 24.6724 70.2724 24.6724C68.0433 24.6724 66.2184 23.9503 64.7979 22.5061C63.3992 21.04 62.6999 19.2129 62.6999 17.0247C62.6999 14.18 63.5959 11.8606 65.388 10.0662C67.18 8.27193 69.3545 7.37477 71.9115 7.37477C74.1844 7.37477 76.0092 8.09688 77.386 9.54108C78.7847 10.9853 79.4841 12.8015 79.4841 14.9897Z" fill="white"/>
<path d="M92.9036 14.8255C92.9036 13.9503 92.6413 13.25 92.1168 12.7249C91.5923 12.1997 90.9257 11.9371 90.1171 11.9371C89.0244 11.9371 88.1284 12.331 87.429 13.1188C86.7297 13.9065 86.38 14.9021 86.38 16.1056C86.38 17.0028 86.6423 17.7139 87.1668 18.2391C87.7131 18.7643 88.4234 19.0269 89.2976 19.0269C90.2592 19.0269 91.1006 18.6439 91.8218 17.8781C92.543 17.0903 92.9036 16.0728 92.9036 14.8255ZM79.4303 24.6067L83.7903 23.7533C83.7903 24.5848 84.0744 25.2632 84.6426 25.7883C85.2108 26.3354 86.0194 26.6089 87.0684 26.6089C88.1393 26.6089 89.0463 26.2697 89.7893 25.5914C90.5324 24.9349 91.0459 23.9831 91.33 22.7358L91.5595 21.7183C90.7728 22.703 89.5817 23.1953 87.9863 23.1953C85.9976 23.1953 84.4022 22.5717 83.2002 21.3244C81.9982 20.0553 81.3972 18.436 81.3972 16.4667C81.3972 13.9503 82.173 11.8277 83.7247 10.0991C85.2982 8.3704 87.2433 7.50607 89.5598 7.50607C90.8055 7.50607 91.8327 7.71394 92.6413 8.1297C93.4499 8.54545 94.0072 9.02685 94.3132 9.5739L94.641 7.86712H99.4599L96.3129 22.8015C95.8102 25.2085 94.7612 27.156 93.1658 28.6439C91.5923 30.1538 89.5817 30.9087 87.134 30.9087C84.6207 30.9087 82.7085 30.2741 81.3972 29.005C80.0859 27.7358 79.4303 26.2697 79.4303 24.6067Z" fill="white"/>
<path d="M109.423 11.9371C108.264 11.9371 107.314 12.4185 106.571 13.3813C105.85 14.3441 105.489 15.482 105.489 16.7949C105.489 17.8234 105.762 18.633 106.308 19.2238C106.877 19.8146 107.598 20.11 108.472 20.11C109.455 20.11 110.352 19.6833 111.16 18.8299C111.991 17.9765 112.406 16.773 112.406 15.2194C112.406 14.1691 112.133 13.3704 111.586 12.8234C111.062 12.2544 110.341 11.959 109.423 11.9371ZM117.356 14.9897C117.356 17.6374 116.482 19.9131 114.733 21.8168C113.007 23.7205 110.81 24.6724 108.144 24.6724C105.915 24.6724 104.09 23.9503 102.67 22.5061C101.271 21.04 100.572 19.2129 100.572 17.0247C100.572 14.18 101.468 11.8606 103.26 10.0662C105.052 8.27193 107.226 7.37477 109.783 7.37477C112.056 7.37477 113.881 8.09688 115.258 9.54108C116.657 10.9853 117.356 12.8015 117.356 14.9897Z" fill="white"/>
<path d="M138.02 24.18H132.808L134.775 14.8584H126.219L124.219 24.18H119.072L123.99 0.908691H129.169L127.235 9.96777H135.824L137.758 0.908691H142.97L138.02 24.18Z" fill="white"/>
<path d="M148.069 14.0706H154.461V13.8409C154.461 13.2063 154.232 12.6374 153.773 12.1341C153.336 11.6089 152.637 11.3463 151.675 11.3463C149.861 11.3463 148.659 12.2544 148.069 14.0706ZM158.592 17.2872L147.61 17.3201C147.61 18.2391 147.905 19.0159 148.495 19.6505C149.085 20.2632 149.927 20.5695 151.019 20.5695C152.44 20.5695 153.456 19.9568 154.068 18.7314L157.936 20.4711C157.346 21.6746 156.439 22.6811 155.215 23.4907C153.992 24.2785 152.451 24.6724 150.593 24.6724C148.495 24.6724 146.714 23.9612 145.25 22.5389C143.786 21.1166 143.053 19.3004 143.053 17.0903C143.053 14.2238 143.917 11.8934 145.643 10.0991C147.391 8.28287 149.413 7.37477 151.708 7.37477C153.959 7.37477 155.74 8.03123 157.051 9.34414C158.384 10.6352 159.051 12.3091 159.051 14.366C159.051 15.3945 158.898 16.3682 158.592 17.2872Z" fill="white"/>
<path d="M173.178 12.889C172.522 12.6921 171.867 12.5936 171.211 12.5936C169.091 12.5936 167.736 13.9721 167.146 16.7293L165.54 24.18H160.557L163.442 10.5914C163.639 9.60672 163.737 8.69863 163.737 7.86712H168.589C168.589 8.56734 168.545 9.15814 168.457 9.63955C169.375 8.3704 170.73 7.73582 172.522 7.73582C173.222 7.73582 173.79 7.83429 174.227 8.03123L173.178 12.889Z" fill="white"/>
<path d="M179.57 14.0706H185.963V13.8409C185.963 13.2063 185.733 12.6374 185.274 12.1341C184.837 11.6089 184.138 11.3463 183.176 11.3463C181.362 11.3463 180.16 12.2544 179.57 14.0706ZM190.093 17.2872L179.111 17.3201C179.111 18.2391 179.406 19.0159 179.996 19.6505C180.586 20.2632 181.428 20.5695 182.52 20.5695C183.941 20.5695 184.957 19.9568 185.569 18.7314L189.437 20.4711C188.847 21.6746 187.94 22.6811 186.717 23.4907C185.493 24.2785 183.952 24.6724 182.094 24.6724C179.996 24.6724 178.215 23.9612 176.751 22.5389C175.287 21.1166 174.555 19.3004 174.555 17.0903C174.555 14.2238 175.418 11.8934 177.144 10.0991C178.893 8.28287 180.914 7.37477 183.209 7.37477C185.46 7.37477 187.241 8.03123 188.552 9.34414C189.885 10.6352 190.552 12.3091 190.552 14.366C190.552 15.3945 190.399 16.3682 190.093 17.2872Z" fill="white"/>
</svg>
