<svg width="17" height="15" viewBox="0 0 17 15" fill="none" xmlns="http://www.w3.org/2000/svg">
<path d="M15.7113 0H1.86771C0.967986 0 0.238892 0.746094 0.238892 1.6668V13.3336C0.238892 14.2539 0.967986 15 1.86771 15H14.8971C15.7965 15 16.5259 14.2539 16.5259 13.3332V4.1668C16.5259 3.70664 16.1614 3.33359 15.7117 3.33359H2.68193C2.23226 3.33359 1.86771 2.96055 1.86771 2.50039C1.86771 2.04023 2.23226 1.6668 2.68193 1.6668H16.5259V0.833203C16.5259 0.373047 16.1614 0 15.7113 0ZM13.6756 7.9168C14.3501 7.9168 14.8971 8.47656 14.8971 9.1668C14.8971 9.85703 14.3501 10.4168 13.6756 10.4168C13.0011 10.4168 12.4541 9.85703 12.4541 9.1668C12.4541 8.47656 13.0011 7.9168 13.6756 7.9168Z" fill="#9BA0A4"/>
</svg>
