<svg width="18" height="15" viewBox="0 0 18 15" fill="none" xmlns="http://www.w3.org/2000/svg">
<path d="M17.5575 3.43194V2.31553C17.5575 1.03661 16.5211 0 15.2424 0H2.62592C1.34726 0 0.310852 1.03661 0.310852 2.31553V3.43194C0.310852 3.54606 0.403455 3.63868 0.517555 3.63868H17.3508C17.4649 3.63868 17.5575 3.54606 17.5575 3.43194Z" fill="#117BD4"/>
<path d="M0.310852 5.61299V12.6836C0.310852 13.9625 1.34726 14.9991 2.62592 14.9991H15.2424C16.5211 14.9991 17.5575 13.9625 17.5575 12.6836V5.61299C17.5575 5.49887 17.4649 5.40625 17.3508 5.40625H0.517555C0.403455 5.40625 0.310852 5.49887 0.310852 5.61299ZM5.60244 11.0297C5.60244 11.3952 5.30644 11.6913 4.94099 11.6913H4.27954C3.91409 11.6913 3.61809 11.3952 3.61809 11.0297V10.3681C3.61809 10.0026 3.91409 9.70651 4.27954 9.70651H4.94099C5.30644 9.70651 5.60244 10.0026 5.60244 10.3681V11.0297Z" fill="#117BD4"/>
</svg>
