<svg width="50" height="49" viewBox="0 0 50 49" fill="none" xmlns="http://www.w3.org/2000/svg">
<path d="M49.1564 47.7979L44.761 36.2787C44.6818 36.1282 44.6105 35.9776 44.46 35.8984L39.0825 32.6422L39.7636 31.9608L38.1005 30.2971L38.7024 29.695L26.1339 17.1934L26.8942 16.4328L13.4861 3.0281C14.2464 2.49734 15.2997 2.5765 15.9887 3.1786L25.6032 12.7965C26.2844 13.4779 27.1158 13.7789 28.0267 13.7789C28.9375 13.7789 29.769 13.4778 30.4501 12.7965L29.3888 11.7348C28.6286 12.4954 27.4168 12.4954 26.6645 11.7348L17.05 2.11694C16.3689 1.43556 15.5374 1.13457 14.6266 1.13457C13.795 1.13457 13.0347 1.43568 12.3536 1.96645C11.142 0.90479 9.5501 0.374023 7.88694 0.374023C5.9942 0.374023 4.17264 1.13457 2.88961 2.49721C0.0860302 5.30179 0.0860302 9.84927 2.88961 12.5746L16.8203 26.5102L17.5806 25.7496L30.1491 38.3305L30.751 37.7205L32.4142 39.3842L33.0953 38.7029L36.3503 44.0822C36.4295 44.2327 36.58 44.312 36.7305 44.3833L48.2537 48.7803C48.3328 48.8595 48.9348 48.7803 49.0852 48.6298C49.1564 48.408 49.3148 48.0989 49.1564 47.7979ZM16.4402 24.0147L3.9509 11.513C1.75716 9.31851 1.75716 5.75339 3.9509 3.55887C5.01218 2.49721 6.37434 1.89512 7.88694 1.89512C9.39954 1.89512 10.7618 2.50518 11.9022 3.55887L24.4708 16.1318L16.4402 24.0147ZM30.0779 36.136L18.6419 24.6959L25.0806 18.2549L36.5167 29.695L30.0779 36.136ZM37.4986 43.0998L34.2436 37.7997C33.713 37.1183 33.0318 37.5699 32.9527 37.7997L31.8202 36.6588L37.0473 31.43L38.1797 32.5628C37.95 32.5628 37.4986 33.3947 38.1797 33.8541L43.4779 37.1103L47.1922 46.8074L37.4986 43.0998Z" fill="#117BD4"/>
</svg>
