<svg width="22" height="22" viewBox="0 0 22 22" fill="none" xmlns="http://www.w3.org/2000/svg">
<path d="M21.191 14.489L21.153 13.662L14.67 12.736L13.355 15.31C11.9666 14.5283 10.6974 13.5517 9.586 12.41C8.43159 11.3004 7.44792 10.0259 6.667 8.62801L9.467 7.22801L6.667 0.708008L5.907 0.818008C4.61986 0.995313 3.42738 1.59296 2.515 2.51801C-0.658 5.68701 0.585 11.9 5.343 16.657C8.325 19.638 11.876 21.239 14.894 21.238C15.7376 21.2674 16.5784 21.1274 17.367 20.8263C18.1555 20.5252 18.8757 20.0691 19.485 19.485C20.1074 18.8208 20.5813 18.0319 20.8755 17.1705C21.1696 16.3092 21.2772 15.3951 21.191 14.489ZM18.071 18.071C15.771 20.371 10.59 19.071 6.757 15.243C2.924 11.415 1.629 6.22901 3.929 3.92901C4.35774 3.49451 4.88248 3.16672 5.461 2.97201L6.881 6.28501L5.774 6.83801C5.5342 6.95811 5.32087 7.12498 5.14655 7.3288C4.97224 7.53262 4.84048 7.76926 4.75904 8.02478C4.67759 8.28031 4.6481 8.54955 4.67231 8.81664C4.69652 9.08374 4.77394 9.34329 4.9 9.58001C5.77535 11.1482 6.87607 12.5794 8.167 13.828C9.41592 15.1045 10.8414 16.1952 12.4 17.067C12.6402 17.1974 12.9041 17.2785 13.1761 17.3054C13.4482 17.3324 13.7228 17.3047 13.984 17.224C14.2394 17.1445 14.476 17.014 14.6796 16.8404C14.8831 16.6668 15.0492 16.4537 15.168 16.214L15.815 14.92L19.182 15.401C19.1436 16.3954 18.7493 17.3429 18.071 18.071Z" fill="white"/>
</svg>
