<svg width="24" height="24" viewBox="0 0 24 24" fill="none" xmlns="http://www.w3.org/2000/svg">
<path d="M17.6719 0H6.32812C2.83887 0 0 2.83887 0 6.32812V17.6719C0 21.1611 2.83887 24 6.32812 24H17.6719C21.1611 24 24 21.1611 24 17.6719V6.32812C24 2.83887 21.1611 0 17.6719 0ZM19.7812 15.5625C19.7812 17.8887 17.8887 19.7812 15.5625 19.7812H8.4375C6.11133 19.7812 4.21875 17.8887 4.21875 15.5625V8.4375C4.21875 6.11133 6.11133 4.21875 8.4375 4.21875H15.5625C17.8887 4.21875 19.7812 6.11133 19.7812 8.4375V15.5625Z" fill="white"/>
</svg>
