<svg width="34" height="34" viewBox="0 0 34 34" fill="none" xmlns="http://www.w3.org/2000/svg">
<path d="M19.8333 9.15385C19.8333 8.98044 19.908 8.81413 20.0408 8.69151C20.1736 8.56889 20.3538 8.5 20.5417 8.5H24.0833C24.2712 8.5 24.4514 8.56889 24.5842 8.69151C24.717 8.81413 24.7917 8.98044 24.7917 9.15385C24.7917 9.32726 24.717 9.49357 24.5842 9.61619C24.4514 9.73881 24.2712 9.8077 24.0833 9.8077H20.5417C20.3538 9.8077 20.1736 9.73881 20.0408 9.61619C19.908 9.49357 19.8333 9.32726 19.8333 9.15385ZM19.8333 11.7692C19.8333 11.5958 19.908 11.4295 20.0408 11.3069C20.1736 11.1843 20.3538 11.1154 20.5417 11.1154H24.0833C24.2712 11.1154 24.4514 11.1843 24.5842 11.3069C24.717 11.4295 24.7917 11.5958 24.7917 11.7692C24.7917 11.9426 24.717 12.109 24.5842 12.2316C24.4514 12.3542 24.2712 12.4231 24.0833 12.4231H20.5417C20.3538 12.4231 20.1736 12.3542 20.0408 12.2316C19.908 12.109 19.8333 11.9426 19.8333 11.7692ZM33.2917 20.9231H32.5833V19.6154C32.5811 18.3424 32.0765 17.1137 31.1639 16.1593C30.2512 15.2049 28.9931 14.5902 27.625 14.4301V6.80922C27.6255 6.63743 27.5891 6.46725 27.5179 6.30854C27.4466 6.14983 27.342 6.00574 27.21 5.88462L21.25 0.383093C21.1188 0.26126 20.9627 0.164667 20.7908 0.0989084C20.6188 0.0331501 20.4345 -0.00046667 20.2483 4.8932e-06H1.41667C1.04108 0.000402911 0.680992 0.138305 0.415409 0.383459C0.149825 0.628612 0.000431186 0.960998 0 1.3077V32.6923C0.000431186 33.039 0.149825 33.3714 0.415409 33.6165C0.680992 33.8617 1.04108 33.9996 1.41667 34H26.2083C26.5839 33.9996 26.944 33.8617 27.2096 33.6165C27.4752 33.3714 27.6246 33.039 27.625 32.6923V32.0385H33.2917C33.4795 32.0385 33.6597 31.9696 33.7925 31.847C33.9254 31.7243 34 31.558 34 31.3846V21.5769C34 21.4035 33.9254 21.2372 33.7925 21.1146C33.6597 20.992 33.4795 20.9231 33.2917 20.9231ZM31.1667 19.6154V20.9231H30.4583V19.6154C30.4583 18.7483 30.0852 17.9168 29.421 17.3037C28.7568 16.6906 27.856 16.3462 26.9167 16.3462C25.9774 16.3462 25.0765 16.6906 24.4123 17.3037C23.7481 17.9168 23.375 18.7483 23.375 19.6154V20.9231H22.6667V19.6154C22.6667 18.5749 23.1144 17.5771 23.9115 16.8414C24.7085 16.1056 25.7895 15.6923 26.9167 15.6923C28.0438 15.6923 29.1248 16.1056 29.9219 16.8414C30.7189 17.5771 31.1667 18.5749 31.1667 19.6154ZM24.7917 20.9231V19.6154C24.7917 19.0952 25.0156 18.5962 25.4141 18.2284C25.8126 17.8605 26.3531 17.6538 26.9167 17.6538C27.4803 17.6538 28.0208 17.8605 28.4193 18.2284C28.8178 18.5962 29.0417 19.0952 29.0417 19.6154V20.9231H24.7917ZM25.2067 5.88462H21.25V2.2323L25.2067 5.88462ZM26.2083 32.6923H1.41667V1.3077H19.8333V6.53847C19.8333 6.71188 19.908 6.87819 20.0408 7.00081C20.1736 7.12343 20.3538 7.19231 20.5417 7.19231H26.2083V14.4301C24.8402 14.5902 23.5821 15.2049 22.6695 16.1593C21.7569 17.1137 21.2522 18.3424 21.25 19.6154V20.9231H20.5417C20.3538 20.9231 20.1736 20.992 20.0408 21.1146C19.908 21.2372 19.8333 21.4035 19.8333 21.5769V31.3846C19.8333 31.558 19.908 31.7243 20.0408 31.847C20.1736 31.9696 20.3538 32.0385 20.5417 32.0385H26.2083V32.6923ZM32.5833 30.7308H21.25V22.2308H32.5833V30.7308ZM29.0417 25.5C29.0403 25.9043 28.9034 26.2984 28.6498 26.628C28.3961 26.9576 28.0381 27.2067 27.625 27.341V28.7692C27.625 28.9426 27.5504 29.109 27.4175 29.2316C27.2847 29.3542 27.1045 29.4231 26.9167 29.4231C26.7288 29.4231 26.5486 29.3542 26.4158 29.2316C26.283 29.109 26.2083 28.9426 26.2083 28.7692V27.341C25.8421 27.2206 25.5187 27.0095 25.2736 26.7308C25.0286 26.4522 24.8712 26.1167 24.8186 25.7611C24.7661 25.4055 24.8205 25.0434 24.9758 24.7143C25.1311 24.3853 25.3815 24.102 25.6994 23.8954C26.0174 23.6888 26.3907 23.5669 26.7787 23.5429C27.1666 23.5189 27.5542 23.5938 27.8992 23.7594C28.2442 23.925 28.5332 24.175 28.7347 24.4819C28.9361 24.7889 29.0423 25.1411 29.0417 25.5ZM3.54167 15.6923C3.54167 15.5189 3.61629 15.3526 3.74913 15.23C3.88197 15.1074 4.06214 15.0385 4.25 15.0385H13.4583C13.6462 15.0385 13.8264 15.1074 13.9592 15.23C14.092 15.3526 14.1667 15.5189 14.1667 15.6923C14.1667 15.8657 14.092 16.032 13.9592 16.1546C13.8264 16.2773 13.6462 16.3462 13.4583 16.3462H4.25C4.06214 16.3462 3.88197 16.2773 3.74913 16.1546C3.61629 16.032 3.54167 15.8657 3.54167 15.6923ZM17.7083 18.9615C17.7083 19.135 17.6337 19.3013 17.5009 19.4239C17.368 19.5465 17.1879 19.6154 17 19.6154H6.375C6.18714 19.6154 6.00697 19.5465 5.87413 19.4239C5.74129 19.3013 5.66667 19.135 5.66667 18.9615C5.66667 18.7881 5.74129 18.6218 5.87413 18.4992C6.00697 18.3766 6.18714 18.3077 6.375 18.3077H17C17.1879 18.3077 17.368 18.3766 17.5009 18.4992C17.6337 18.6218 17.7083 18.7881 17.7083 18.9615ZM3.54167 18.9615C3.54167 18.8322 3.58321 18.7058 3.66104 18.5983C3.73888 18.4908 3.8495 18.407 3.97893 18.3575C4.10836 18.308 4.25079 18.295 4.38819 18.3203C4.52559 18.3455 4.6518 18.4078 4.75087 18.4992C4.84993 18.5906 4.91739 18.7071 4.94472 18.834C4.97205 18.9608 4.95803 19.0923 4.90442 19.2118C4.8508 19.3312 4.76001 19.4333 4.64353 19.5052C4.52704 19.577 4.3901 19.6154 4.25 19.6154C4.06214 19.6154 3.88197 19.5465 3.74913 19.4239C3.61629 19.3013 3.54167 19.135 3.54167 18.9615ZM17.7083 22.2308C17.7083 22.4042 17.6337 22.5705 17.5009 22.6931C17.368 22.8157 17.1879 22.8846 17 22.8846H4.25C4.06214 22.8846 3.88197 22.8157 3.74913 22.6931C3.61629 22.5705 3.54167 22.4042 3.54167 22.2308C3.54167 22.0574 3.61629 21.8911 3.74913 21.7684C3.88197 21.6458 4.06214 21.5769 4.25 21.5769H17C17.1879 21.5769 17.368 21.6458 17.5009 21.7684C17.6337 21.8911 17.7083 22.0574 17.7083 22.2308ZM17.7083 30.7308C17.7083 30.9042 17.6337 31.0705 17.5009 31.1931C17.368 31.3157 17.1879 31.3846 17 31.3846H4.25C4.06214 31.3846 3.88197 31.3157 3.74913 31.1931C3.61629 31.0705 3.54167 30.9042 3.54167 30.7308C3.54167 30.5574 3.61629 30.391 3.74913 30.2684C3.88197 30.1458 4.06214 30.0769 4.25 30.0769H17C17.1879 30.0769 17.368 30.1458 17.5009 30.2684C17.6337 30.391 17.7083 30.5574 17.7083 30.7308Z" fill="white"/>
</svg>
