<svg width="32" height="32" viewBox="0 0 32 32" fill="none" xmlns="http://www.w3.org/2000/svg">
<path d="M29.6667 23.8667L22.8 20.9333L21.1333 18.7333L20.4 15.9333C20.6667 15.6 20.9333 15.2667 21.2 14.9333C23.4 14.6 25.0667 12.7333 25.2 10.4667C25.5333 10 25.7333 9.33333 25.7333 8.6C25.7333 6.8 24.6 5.6 22.8667 5.6C22 2.13333 19.5333 0 16 0C12.4667 0 9.93333 2.13333 9.13333 5.53333C7.4 5.53333 6.26667 6.73333 6.26667 8.53333C6.26667 10.3333 7.4 11.5333 9.13333 11.5333C9.2 11.5333 9.26667 11.5333 9.33333 11.4667C9.8 13.2 10.6 14.6667 11.6667 15.8L11 18.6L9.33333 20.8L2.33333 23.8667C0.933333 24.4667 0 25.8667 0 27.4667V31.3333C0 31.7333 0.266667 32 0.666667 32H31.3333C31.7333 32 32 31.7333 32 31.3333V27.4C32 25.8667 31.0667 24.4667 29.6667 23.8667ZM22.1333 22.1333C22.0667 22.1333 22.0667 22.1333 22.1333 22.1333L19.2667 24.4L17.2 21.2667C18.2667 21.0667 19.3333 20.6 20.4 19.9333L21.8667 21.8C21.9333 21.8667 21.9333 21.9333 22 22L22.1333 22.1333ZM16.4 26.7333L17.3333 30.6667H14.5333L15.4 26.7333C15.4667 26.5333 15.4 26.3333 15.2667 26.2L14.1333 24.6L15.8667 21.9333L17.6 24.6L16.4 26.2C16.4 26.3333 16.4 26.5333 16.4 26.7333ZM11.6667 19.9333C12.7333 20.6667 13.8 21.0667 14.8667 21.2667L12.8 24.4L9.93333 22.1333L11.6667 19.9333ZM16 18C17.2 18 18.3333 17.6 19.2667 16.8667L19.7333 18.6667C17.2 20.4 14.8 20.4 12.2667 18.6667L12.7333 16.8667C13.6667 17.6 14.8 18 16 18ZM22.1333 13.1333C22.3333 12.6667 22.5333 12.1333 22.6667 11.5333H22.7333C23.0667 11.5333 23.3333 11.4667 23.6 11.4C23.3333 12.2 22.8 12.8 22.1333 13.1333ZM24.4 8.53333C24.4 9.13333 24.2 10.0667 23 10.2C23.1333 9.53333 23.1333 8.86667 23.1333 8.13333C23.1333 7.66667 23.1333 7.26667 23.0667 6.86667C24.2 7.06667 24.4 8 24.4 8.53333ZM7.6 8.53333C7.6 7.93333 7.8 7 8.93333 6.86667C8.86667 7.26667 8.86667 7.73333 8.86667 8.13333C8.86667 8.86667 8.93333 9.53333 9 10.2C7.73333 10.2 7.6 9.2 7.6 8.53333ZM16 1.33333C19.6 1.33333 21.8 3.93333 21.8 8.2C21.8 10.2667 21.2667 12.1333 20.4667 13.6H16.8C16.8 13.2667 16.4667 12.9333 16.1333 12.9333C15.7333 12.9333 15.4667 13.2 15.4667 13.6V14.2667C15.4667 14.6667 15.7333 14.9333 16.1333 14.9333H19.4667C19.4 15 19.3333 15.1333 19.2 15.2C18.3333 16.1333 17.2 16.6667 16 16.6667C12.8 16.6667 10.2 12.8667 10.2 8.2C10.1333 3.93333 12.4 1.33333 16 1.33333ZM1.33333 27.4C1.33333 26.4 1.93333 25.4667 2.86667 25.0667L8.66667 22.6C8.73333 22.8667 8.93333 23.0667 9.13333 23.2667L12.5333 25.9333C12.6667 26 12.8 26.0667 12.9333 26.0667C13 26.0667 13 26.0667 13.0667 26.0667C13.2667 26.0667 13.4 25.9333 13.4667 25.8L14.1333 26.7333L13.2667 30.7333H1.33333V27.4ZM30.6667 30.6667H18.7333L17.7333 26.7333L18.4667 25.8C18.6 25.9333 18.7333 26.0667 18.9333 26.0667C19 26.0667 19 26.0667 19.0667 26.0667C19.2 26.0667 19.3333 26 19.4667 25.9333L22.8667 23.2667C23.1333 23.1333 23.2667 22.8667 23.3333 22.6L29.1333 25.0667C30.0667 25.4667 30.6667 26.4 30.6667 27.4V30.6667Z" fill="white"/>
</svg>
