<svg width="25" height="22" viewBox="0 0 25 22" fill="none" xmlns="http://www.w3.org/2000/svg">
<path d="M24.4229 1.55897C23.5856 0.556363 22.1502 0.472797 21.1933 1.30831L21.0338 1.47542L20.7946 1.6843L19.8775 2.51981L19.7579 2.60336L15.5315 6.48847L15.2922 6.69735V3.98195C15.2922 3.60597 14.9733 3.27176 14.6144 3.27176H0.818735C0.459888 3.27176 0.140907 3.60597 0.140907 3.98195V21.1099C0.140907 21.4859 0.459888 21.8201 0.818735 21.8201H14.6144C14.9733 21.8201 15.2922 21.4859 15.2922 21.1099V13.0472L16.8473 11.6269L17.7244 10.8331L19.0003 9.6634L19.8775 8.86968L20.3161 8.45193L22.7084 6.2796L23.7052 5.40232L24.1438 4.98457L24.2236 4.90101C25.1805 4.10728 25.2602 2.56159 24.4229 1.55897ZM13.9765 20.4415H1.53642V4.7339H13.9765V7.99238L11.1854 10.5407L10.069 11.5433V10.9585H3.2908V12.0028H9.5507L8.19504 13.2561H3.2908V14.3005H7.59696L6.87927 15.6791L6.79952 15.8044L5.72298 17.9767L5.64323 18.1021C5.60336 18.2692 5.64325 18.478 5.76286 18.6034C5.88248 18.7287 6.04196 18.7705 6.20144 18.7705H6.24131L6.4008 18.7287L11.0259 16.9741C11.1057 16.9323 11.1456 16.8906 11.1854 16.8906L14.0163 14.3423V20.4415H13.9765ZM8.95262 14.5094C9.15198 14.6765 9.3912 14.8854 9.59056 15.136C9.82979 15.4284 9.98927 15.6373 10.1089 15.888C10.1488 16.0133 10.2285 16.1386 10.2684 16.2222L8.43426 16.9323L7.71657 16.0968L8.63362 14.3005C8.75324 14.3423 8.87287 14.4258 8.95262 14.5094ZM20.5952 6.948L19.1598 8.24305L16.9669 10.2483L16.0897 11.042L15.2922 11.794L13.9765 13.0054L11.0658 15.6791C11.026 15.5955 10.9861 15.4702 10.9063 15.3866C10.7468 15.0942 10.5475 14.8018 10.2684 14.4676C10.2285 14.384 10.1488 14.3423 10.1089 14.2587C9.90953 14.0498 9.71017 13.841 9.51081 13.6739C9.43107 13.5903 9.35133 13.5485 9.27159 13.5067L9.47095 13.2979L9.5507 13.2143L12.3816 10.6243L13.9366 9.20388L14.0961 9.07856L14.6543 8.57725L15.2922 7.99238L16.927 6.48847L17.246 6.19604L17.4453 5.98716L19.0003 4.56681C20.1566 5.19345 20.6351 6.15428 20.8344 6.65559L20.5952 6.948ZM21.1534 6.44671C20.9142 5.86185 20.4357 4.98457 19.3193 4.35794L19.5984 4.10727C20.7547 4.7339 21.2332 5.73653 21.3926 6.23783L21.1534 6.44671ZM23.6255 4.23259L23.2268 4.56681L23.0673 4.7339L22.9875 4.81746L22.5091 5.23521L22.3097 5.40232L21.8711 5.82008L21.7116 5.9454C21.5123 5.36054 20.9939 4.48324 19.9174 3.81483L19.9573 3.77307L19.9971 3.7313L20.7148 3.06288L21.1534 2.64513L21.592 2.22737L21.7116 2.14382L21.7914 2.06029C22.3496 1.55898 23.2268 1.60075 23.7052 2.18561C24.2236 2.81224 24.1837 3.73128 23.6255 4.23259Z" fill="white"/>
</svg>
