<svg width="31" height="31" viewBox="0 0 31 31" fill="none" xmlns="http://www.w3.org/2000/svg">
<path d="M30.2221 11.7318C30.0218 11.7318 29.8296 11.8114 29.6879 11.953C29.5462 12.0947 29.4666 12.2869 29.4666 12.4872V26.841L27.1999 28.6541V13.2427C27.1999 13.0423 27.1203 12.8502 26.9786 12.7085C26.8369 12.5668 26.6448 12.4872 26.4444 12.4872C26.244 12.4872 26.0518 12.5668 25.9101 12.7085C25.7684 12.8502 25.6888 13.0423 25.6888 13.2427V29.4851H1.51111V5.31033H9.8562V15.3089C9.85765 15.4408 9.89361 15.57 9.96052 15.6837C10.0274 15.7974 10.1229 15.8916 10.2376 15.9569C10.3522 16.0222 10.4819 16.0564 10.6138 16.056C10.7457 16.0557 10.8753 16.0208 10.9895 15.9548L13.6 14.3948L16.1991 15.9548C16.3139 16.0211 16.4442 16.056 16.5768 16.056C16.7095 16.056 16.8398 16.0211 16.9546 15.9548C17.0699 15.8882 17.1656 15.7924 17.2319 15.677C17.2983 15.5616 17.3329 15.4307 17.3324 15.2975V5.31033H17.6346C17.835 5.31033 18.0272 5.23074 18.1689 5.08906C18.3106 4.94738 18.3902 4.75523 18.3902 4.55487C18.3902 4.35451 18.3106 4.16235 18.1689 4.02068C18.0272 3.879 17.835 3.79941 17.6346 3.79941H2.32711L4.15554 1.53302H18.5111C18.7114 1.53302 18.9036 1.45343 19.0453 1.31175C19.187 1.17007 19.2666 0.977918 19.2666 0.777557C19.2666 0.577196 19.187 0.385041 19.0453 0.243365C18.9036 0.101688 18.7114 0.0220947 18.5111 0.0220947H3.77777C3.66459 0.0221654 3.55287 0.0476597 3.45086 0.0966945C3.34886 0.145729 3.25917 0.217052 3.18844 0.305393L0.166222 4.0827C0.16427 4.09141 0.16427 4.10044 0.166222 4.10915C0.148138 4.12968 0.132891 4.15255 0.120889 4.17714L0.0868887 4.23757C0.0764498 4.25957 0.067612 4.28229 0.0604442 4.30557L0.0377776 4.37733V4.44533C0.0359118 4.47173 0.0359118 4.49824 0.0377776 4.52465L0 4.55487V30.2406C0 30.4409 0.0796027 30.6331 0.221296 30.7748C0.36299 30.9165 0.555168 30.996 0.755554 30.996H26.4444C26.4908 31.0016 26.5377 31.0016 26.5842 30.996H26.6295L26.7164 30.9696L26.7655 30.9469L26.841 30.9092L26.8902 30.8752H26.9166L30.6944 27.8533C30.7889 27.7779 30.864 27.681 30.9133 27.5705C30.9626 27.4601 30.9847 27.3395 30.9777 27.2187V12.4872C30.9777 12.2869 30.8981 12.0947 30.7564 11.953C30.6147 11.8114 30.4225 11.7318 30.2221 11.7318ZM11.3673 5.31033H15.8326V13.9717L13.9777 12.865C13.8629 12.7986 13.7326 12.7637 13.6 12.7637C13.4673 12.7637 13.337 12.7986 13.2222 12.865L11.3786 13.9679L11.3673 5.31033Z" fill="white"/>
</svg>
